<svg width="20" height="20" viewBox="0 0 20 20" fill="none" xmlns="http://www.w3.org/2000/svg">
<path d="M4.32507 5.31625C4.16673 5.31625 4.00007 5.24959 3.8834 5.13292C3.64173 4.89125 3.64173 4.49125 3.8834 4.24958L6.9084 1.22458C7.15007 0.982918 7.55007 0.982918 7.79173 1.22458C8.0334 1.46625 8.0334 1.86625 7.79173 2.10792L4.76673 5.13292C4.64173 5.24959 4.4834 5.31625 4.32507 5.31625Z" fill="#494949"/>
<path d="M15.6753 5.31625C15.5169 5.31625 15.3586 5.25792 15.2336 5.13292L12.2086 2.10792C11.9669 1.86625 11.9669 1.46625 12.2086 1.22458C12.4503 0.982918 12.8503 0.982918 13.0919 1.22458L16.1169 4.24958C16.3586 4.49125 16.3586 4.89125 16.1169 5.13292C16.0003 5.24959 15.8336 5.31625 15.6753 5.31625Z" fill="#494949"/>
<path d="M16.8415 8.83333C16.7832 8.83333 16.7248 8.83333 16.6665 8.83333H16.4748H3.33317C2.74984 8.84167 2.08317 8.84167 1.59984 8.35833C1.2165 7.98333 1.0415 7.4 1.0415 6.54167C1.0415 4.25 2.7165 4.25 3.5165 4.25H16.4832C17.2832 4.25 18.9582 4.25 18.9582 6.54167C18.9582 7.40833 18.7832 7.98333 18.3998 8.35833C17.9665 8.79167 17.3832 8.83333 16.8415 8.83333ZM3.5165 7.58333H16.6748C17.0498 7.59167 17.3998 7.59167 17.5165 7.475C17.5748 7.41667 17.6998 7.21667 17.6998 6.54167C17.6998 5.6 17.4665 5.5 16.4748 5.5H3.5165C2.52484 5.5 2.2915 5.6 2.2915 6.54167C2.2915 7.21667 2.42484 7.41667 2.47484 7.475C2.5915 7.58333 2.94984 7.58333 3.3165 7.58333H3.5165Z" fill="#494949"/>
<path d="M10 15.0417C9.65833 15.0417 9.375 14.7584 9.375 14.4167V11.4584C9.375 11.1167 9.65833 10.8334 10 10.8334C10.3417 10.8334 10.625 11.1167 10.625 11.4584V14.4167C10.625 14.7667 10.3417 15.0417 10 15.0417Z" fill="#494949"/>
<path d="M7.89567 12.9375C7.89567 12.5958 8.179 12.3125 8.52067 12.3125L11.479 12.3125C11.8207 12.3125 12.104 12.5958 12.104 12.9375C12.104 13.2792 11.8207 13.5625 11.479 13.5625L8.52067 13.5625C8.17067 13.5625 7.89567 13.2792 7.89567 12.9375Z" fill="#494949"/>
<path d="M12.4107 18.9584H7.38573C4.4024 18.9584 3.73573 17.1834 3.4774 15.6417L2.3024 8.43337C2.24407 8.09171 2.4774 7.77504 2.81907 7.71671C3.16073 7.65837 3.4774 7.89171 3.53573 8.23337L4.71073 15.4334C4.9524 16.9084 5.4524 17.7084 7.38573 17.7084H12.4107C14.5524 17.7084 14.7941 16.9584 15.0691 15.5084L16.4691 8.21671C16.5357 7.87504 16.8607 7.65004 17.2024 7.72504C17.5441 7.79171 17.7607 8.11671 17.6941 8.45837L16.2941 15.75C15.9691 17.4417 15.4274 18.9584 12.4107 18.9584Z" fill="#494949"/>
</svg>
