<svg width="24" height="25" viewBox="0 0 24 25" fill="none" xmlns="http://www.w3.org/2000/svg">
<path d="M21.0002 7.37255C20.9802 7.37255 20.9502 7.37255 20.9202 7.37255C15.6302 6.84255 10.3502 6.64255 5.12016 7.17255L3.08016 7.37255C2.66016 7.41255 2.29016 7.11255 2.25016 6.69255C2.21016 6.27255 2.51016 5.91255 2.92016 5.87255L4.96016 5.67255C10.2802 5.13255 15.6702 5.34255 21.0702 5.87255C21.4802 5.91255 21.7802 6.28255 21.7402 6.69255C21.7102 7.08255 21.3802 7.37255 21.0002 7.37255Z" fill="#8B8E93"/>
<path d="M8.49977 6.36258C8.45977 6.36258 8.41977 6.36258 8.36977 6.35258C7.96977 6.28258 7.68977 5.89258 7.75977 5.49258L7.97977 4.18258C8.13977 3.22258 8.35977 1.89258 10.6898 1.89258H13.3098C15.6498 1.89258 15.8698 3.27258 16.0198 4.19258L16.2398 5.49258C16.3098 5.90258 16.0298 6.29258 15.6298 6.35258C15.2198 6.42258 14.8298 6.14258 14.7698 5.74258L14.5498 4.44258C14.4098 3.57258 14.3798 3.40258 13.3198 3.40258H10.6998C9.63977 3.40258 9.61977 3.54258 9.46977 4.43258L9.23977 5.73258C9.17977 6.10258 8.85977 6.36258 8.49977 6.36258Z" fill="#8B8E93"/>
<path d="M15.2099 23.3927H8.7899C5.2999 23.3927 5.1599 21.4627 5.0499 19.9027L4.3999 9.83265C4.3699 9.42265 4.6899 9.06265 5.0999 9.03265C5.5199 9.01265 5.8699 9.32265 5.8999 9.73265L6.5499 19.8027C6.6599 21.3227 6.6999 21.8927 8.7899 21.8927H15.2099C17.3099 21.8927 17.3499 21.3227 17.4499 19.8027L18.0999 9.73265C18.1299 9.32265 18.4899 9.01265 18.8999 9.03265C19.3099 9.06265 19.6299 9.41265 19.5999 9.83265L18.9499 19.9027C18.8399 21.4627 18.6999 23.3927 15.2099 23.3927Z" fill="#8B8E93"/>
<path d="M13.6601 17.8926H10.3301C9.92008 17.8926 9.58008 17.5526 9.58008 17.1426C9.58008 16.7326 9.92008 16.3926 10.3301 16.3926H13.6601C14.0701 16.3926 14.4101 16.7326 14.4101 17.1426C14.4101 17.5526 14.0701 17.8926 13.6601 17.8926Z" fill="#8B8E93"/>
<path d="M14.5 13.8926H9.5C9.09 13.8926 8.75 13.5526 8.75 13.1426C8.75 12.7326 9.09 12.3926 9.5 12.3926H14.5C14.91 12.3926 15.25 12.7326 15.25 13.1426C15.25 13.5526 14.91 13.8926 14.5 13.8926Z" fill="#8B8E93"/>
</svg>
