<?xml version="1.0" standalone="no"?>
<!DOCTYPE svg PUBLIC "-//W3C//DTD SVG 20010904//EN"
 "http://www.w3.org/TR/2001/REC-SVG-20010904/DTD/svg10.dtd">
<svg version="1.0" xmlns="http://www.w3.org/2000/svg"
 width="48.000000pt" height="48.000000pt" viewBox="0 0 48.000000 48.000000"
 preserveAspectRatio="xMidYMid meet">

<g transform="translate(0.000000,48.000000) scale(0.100000,-0.100000)"
fill="#000000" stroke="none">
<path d="M44 427 c-3 -8 -4 -49 -2 -93 l3 -79 90 0 90 0 0 90 0 90 -88 3 c-67
2 -89 0 -93 -11z m166 -82 l0 -75 -75 0 -75 0 0 75 0 75 75 0 75 0 0 -75z"/>
<path d="M91 359 c-33 -45 -22 -59 44 -59 39 0 57 4 61 14 8 21 -36 76 -61 76
-12 0 -31 -13 -44 -31z m59 -4 c0 -8 7 -15 15 -15 8 0 15 -4 15 -10 0 -5 -20
-10 -45 -10 -25 0 -45 2 -45 5 0 3 8 14 17 25 21 24 43 26 43 5z"/>
<path d="M254 427 c-3 -8 -4 -49 -2 -93 l3 -79 90 0 90 0 0 90 0 90 -88 3
c-67 2 -89 0 -93 -11z m166 -58 c0 -45 -2 -50 -15 -39 -12 10 -18 10 -30 0
-13 -11 -20 -9 -40 10 -24 23 -25 23 -45 5 -20 -18 -20 -18 -20 28 l0 47 75 0
75 0 0 -51z m-83 -60 c18 -18 25 -20 38 -9 12 10 18 10 30 0 28 -23 15 -30
-60 -30 -79 0 -89 7 -58 42 20 23 22 23 50 -3z"/>
<path d="M360 375 c0 -8 7 -15 15 -15 8 0 15 7 15 15 0 8 -7 15 -15 15 -8 0
-15 -7 -15 -15z"/>
<path d="M44 217 c-3 -8 -4 -49 -2 -93 l3 -79 90 0 90 0 0 90 0 90 -88 3 c-67
2 -89 0 -93 -11z m166 -82 l0 -75 -75 0 -75 0 0 75 0 75 75 0 75 0 0 -75z"/>
<path d="M126 181 c-4 -5 -14 -7 -23 -4 -12 5 -15 2 -11 -9 4 -9 2 -20 -4 -26
-6 -6 -6 -12 1 -16 5 -4 7 -14 4 -23 -5 -12 -2 -15 10 -10 9 3 19 1 23 -4 4
-7 10 -7 16 -1 6 6 17 8 26 4 11 -4 14 -1 10 10 -4 9 -2 20 4 26 6 6 6 12 -1
16 -5 4 -7 14 -4 23 5 12 2 15 -9 11 -9 -4 -20 -2 -26 4 -6 6 -12 6 -16 -1z
m24 -46 c0 -8 -7 -15 -15 -15 -8 0 -15 7 -15 15 0 8 7 15 15 15 8 0 15 -7 15
-15z"/>
<path d="M254 217 c-3 -8 -4 -49 -2 -93 l3 -79 90 0 90 0 0 90 0 90 -88 3
c-67 2 -89 0 -93 -11z m166 -82 l0 -75 -75 0 -75 0 0 75 0 75 75 0 75 0 0 -75z"/>
<path d="M310 171 c-21 -17 -23 -23 -15 -47 21 -57 88 -59 100 -2 6 26 3 34
-16 49 -30 23 -38 23 -69 0z m65 -39 c-3 -8 -5 -18 -5 -23 0 -5 -11 -9 -24 -9
-30 0 -43 38 -19 56 21 14 56 -3 48 -24z"/>
</g>
</svg>
