<?xml version="1.0" standalone="no"?>
<!DOCTYPE svg PUBLIC "-//W3C//DTD SVG 20010904//EN"
 "http://www.w3.org/TR/2001/REC-SVG-20010904/DTD/svg10.dtd">
<svg version="1.0" xmlns="http://www.w3.org/2000/svg"
 width="100.000000pt" height="100.000000pt" viewBox="0 0 100.000000 100.000000"
 preserveAspectRatio="xMidYMid meet">

<g transform="translate(0.000000,100.000000) scale(0.100000,-0.100000)"
fill="#000000" stroke="none">
<path d="M0 500 l0 -500 500 0 500 0 0 500 0 500 -500 0 -500 0 0 -500z m320
363 l0 -97 -32 31 c-31 30 -34 31 -61 17 -26 -14 -29 -14 -55 17 -15 18 -31
38 -35 46 -7 11 -18 7 -53 -22 l-44 -36 0 70 0 71 140 0 140 0 0 -97z m320
-43 l0 -140 -140 0 -140 0 0 140 0 140 140 0 140 0 0 -140z m320 0 l0 -140
-140 0 -140 0 0 140 0 140 140 0 140 0 0 -140z m-830 3 c0 -5 14 -23 30 -41
29 -31 32 -32 57 -18 26 13 30 12 65 -16 21 -16 38 -38 38 -49 0 -18 -9 -19
-140 -19 l-140 0 0 43 c0 36 5 46 37 74 38 32 53 39 53 26z m190 -323 l0 -140
-140 0 -140 0 0 140 0 140 140 0 140 0 0 -140z m320 43 l0 -97 -32 31 c-31 30
-34 31 -61 17 -26 -14 -29 -14 -55 17 -15 18 -31 38 -35 46 -7 11 -18 7 -53
-22 l-44 -36 0 70 0 71 140 0 140 0 0 -97z m320 -43 l0 -140 -140 0 -140 0 0
140 0 140 140 0 140 0 0 -140z m-510 3 c0 -5 14 -23 30 -41 29 -31 32 -32 57
-18 26 13 30 12 65 -16 21 -16 38 -38 38 -49 0 -18 -9 -19 -140 -19 l-140 0 0
43 c0 36 5 46 37 74 38 32 53 39 53 26z m-130 -323 l0 -140 -140 0 -140 0 0
140 0 140 140 0 140 0 0 -140z m320 0 l0 -140 -140 0 -140 0 0 140 0 140 140
0 140 0 0 -140z m320 0 l0 -140 -140 0 -140 0 0 140 0 140 140 0 140 0 0 -140z"/>
<path d="M224 906 c-10 -26 4 -48 28 -44 17 2 23 10 23 28 0 18 -6 26 -23 28
-13 2 -25 -3 -28 -12z"/>
<path d="M486 894 c-4 -11 -14 -15 -30 -12 -19 4 -22 1 -18 -15 3 -12 -2 -25
-13 -33 -18 -14 -18 -14 0 -28 11 -8 16 -20 13 -33 -4 -17 -2 -19 15 -15 13 3
25 -2 33 -13 14 -18 14 -18 28 0 8 11 20 16 33 13 17 -4 19 -2 15 15 -3 13 2
25 13 33 18 14 18 14 0 28 -11 8 -16 21 -13 33 4 16 1 19 -18 15 -16 -3 -26 1
-30 12 -3 9 -10 16 -14 16 -4 0 -11 -7 -14 -16z m39 -74 c0 -18 -6 -26 -23
-28 -24 -4 -38 18 -28 44 3 9 15 14 28 12 17 -2 23 -10 23 -28z"/>
<path d="M724 906 c-10 -26 4 -48 28 -44 17 2 23 10 23 28 0 18 -6 26 -23 28
-13 2 -25 -3 -28 -12z"/>
<path d="M815 845 c-59 -43 -75 -59 -75 -75 0 -35 28 -50 93 -50 106 0 138 46
74 108 -36 35 -61 39 -92 17z m65 -47 c10 -13 16 -26 13 -30 -6 -11 -113 -10
-113 1 0 5 14 15 30 23 17 7 30 16 30 20 0 16 22 7 40 -14z"/>
<path d="M182 611 c-7 -4 -24 -6 -37 -4 -37 8 -62 -12 -68 -54 -3 -21 -9 -51
-12 -66 -8 -30 16 -67 42 -67 8 0 26 -9 40 -20 14 -11 31 -20 38 -20 17 0 115
93 115 108 0 7 -9 29 -20 49 -11 21 -20 43 -20 50 0 25 -52 41 -78 24z m42
-47 c3 -9 3 -20 0 -26 -3 -5 3 -16 15 -24 27 -20 27 -32 -3 -40 -13 -3 -29
-18 -36 -32 l-12 -27 -18 23 c-10 12 -27 22 -39 22 -27 0 -36 18 -18 38 10 11
13 27 10 45 -6 29 5 34 37 17 13 -7 21 -6 30 5 16 19 26 19 34 -1z"/>
<path d="M186 534 c-5 -14 -9 -14 -23 -3 -15 12 -16 12 -10 -5 5 -12 3 -23 -5
-29 -9 -6 -8 -7 5 -3 11 3 17 0 17 -9 0 -7 5 -17 12 -21 8 -5 9 0 5 15 -4 18
-2 21 14 16 11 -4 19 -2 19 4 0 6 -6 11 -14 11 -9 0 -12 7 -9 20 6 24 -2 27
-11 4z"/>
<path d="M544 586 c-10 -26 4 -48 28 -44 33 4 33 52 0 56 -13 2 -25 -3 -28
-12z"/>
<path d="M806 574 c-4 -11 -14 -15 -30 -12 -19 4 -22 1 -18 -15 3 -12 -2 -25
-13 -33 -18 -14 -18 -14 0 -28 11 -8 16 -20 13 -33 -4 -17 -2 -19 15 -15 13 3
25 -2 33 -13 14 -18 14 -18 28 0 8 11 20 16 33 13 17 -4 19 -2 15 15 -3 13 2
25 13 33 18 14 18 14 0 28 -11 8 -16 21 -13 33 4 16 1 19 -18 15 -16 -3 -26 1
-30 12 -3 9 -10 16 -14 16 -4 0 -11 -7 -14 -16z m39 -74 c0 -18 -6 -26 -23
-28 -13 -2 -25 3 -28 12 -10 26 4 48 28 44 17 -2 23 -10 23 -28z"/>
<path d="M166 254 c-4 -11 -14 -15 -30 -12 -19 4 -22 1 -18 -15 3 -12 -2 -25
-13 -33 -18 -14 -18 -14 0 -28 11 -8 16 -20 13 -33 -4 -17 -2 -19 15 -15 13 3
25 -2 33 -13 14 -18 14 -18 28 0 8 11 20 16 33 13 17 -4 19 -2 15 15 -3 13 2
25 13 33 18 14 18 14 0 28 -11 8 -16 21 -13 33 4 16 1 19 -18 15 -16 -3 -26 1
-30 12 -8 21 -20 21 -28 0z m39 -74 c0 -18 -6 -26 -23 -28 -13 -2 -25 3 -28
12 -10 26 4 48 28 44 17 -2 23 -10 23 -28z"/>
<path d="M404 266 c-10 -26 4 -48 28 -44 17 2 23 10 23 28 0 18 -6 26 -23 28
-13 2 -25 -3 -28 -12z"/>
<path d="M495 205 c-59 -43 -75 -59 -75 -75 0 -35 28 -50 93 -50 106 0 138 46
74 108 -36 35 -61 39 -92 17z m65 -47 c10 -13 16 -26 13 -30 -6 -11 -113 -10
-113 1 0 5 14 15 30 23 17 7 30 16 30 20 0 16 22 7 40 -14z"/>
<path d="M822 291 c-7 -4 -24 -6 -37 -4 -37 8 -62 -12 -68 -54 -3 -21 -9 -51
-12 -66 -8 -30 16 -67 42 -67 8 0 26 -9 40 -20 14 -11 31 -20 38 -20 17 0 115
93 115 108 0 7 -9 29 -20 49 -11 21 -20 43 -20 50 0 25 -52 41 -78 24z m42
-47 c3 -9 3 -20 0 -26 -3 -5 3 -16 15 -24 27 -20 27 -32 -3 -40 -13 -3 -29
-18 -36 -32 l-12 -27 -18 23 c-10 12 -27 22 -39 22 -27 0 -36 18 -18 38 10 11
13 27 10 45 -6 29 5 34 37 17 13 -7 21 -6 30 5 16 19 26 19 34 -1z"/>
<path d="M826 214 c-5 -14 -9 -14 -23 -3 -15 12 -16 12 -10 -5 5 -12 3 -23 -5
-29 -9 -6 -8 -7 5 -3 11 3 17 0 17 -9 0 -7 5 -17 12 -21 8 -5 9 0 5 15 -4 18
-2 21 14 16 11 -4 19 -2 19 4 0 6 -6 11 -14 11 -9 0 -12 7 -9 20 6 24 -2 27
-11 4z"/>
</g>
</svg>
