<svg width="25" height="24" viewBox="0 0 25 24" fill="none" xmlns="http://www.w3.org/2000/svg">
<path d="M11.4982 22.75C11.0182 22.75 10.5382 22.63 10.0982 22.38C9.20816 21.88 8.67816 20.99 8.67816 19.98V14.63C8.67816 14.12 8.34816 13.37 8.03816 12.98L4.23816 8.98999C3.60816 8.35999 3.11816 7.26001 3.11816 6.45001V4.13C3.11816 2.52 4.33816 1.26001 5.88816 1.26001H19.2182C20.7482 1.26001 21.9882 2.50003 21.9882 4.03003V6.25C21.9882 7.3 21.3582 8.50998 20.7582 9.09998C20.4682 9.38998 19.9882 9.38998 19.6982 9.09998C19.4082 8.80998 19.4082 8.32998 19.6982 8.03998C20.0682 7.66998 20.4882 6.84 20.4882 6.25V4.03003C20.4882 3.33003 19.9182 2.76001 19.2182 2.76001H5.89816C5.18816 2.76001 4.62816 3.36 4.62816 4.13V6.45001C4.62816 6.82001 4.92816 7.55 5.31816 7.94L9.16816 11.99C9.67816 12.62 10.1782 13.68 10.1782 14.63V19.98C10.1782 20.64 10.6282 20.96 10.8282 21.07C11.2582 21.31 11.7682 21.3 12.1682 21.06L13.5682 20.16C13.9182 19.94 14.3782 20.04 14.6082 20.39C14.8282 20.74 14.7282 21.2 14.3782 21.43L12.9682 22.34C12.5182 22.61 12.0082 22.75 11.4982 22.75Z" fill="#292D32"/>
<path d="M17.4482 20.25C15.5282 20.25 13.7182 19.23 12.7382 17.58C12.2182 16.74 11.9482 15.76 11.9482 14.75C11.9482 11.72 14.4182 9.25 17.4482 9.25C20.4782 9.25 22.9482 11.72 22.9482 14.75C22.9482 15.76 22.6682 16.74 22.1482 17.59C21.1782 19.23 19.3782 20.25 17.4482 20.25ZM17.4482 10.75C15.2382 10.75 13.4482 12.54 13.4482 14.75C13.4482 15.48 13.6482 16.19 14.0282 16.8C14.7482 18.01 16.0582 18.75 17.4482 18.75C18.8682 18.75 20.1482 18.03 20.8682 16.81C21.2482 16.19 21.4482 15.48 21.4482 14.75C21.4482 12.54 19.6582 10.75 17.4482 10.75Z" fill="#5C5C5C"/>
<path d="M18.7184 16.7399C18.5284 16.7399 18.3384 16.6699 18.1884 16.5199L15.6784 14.0099C15.3884 13.7199 15.3884 13.2399 15.6784 12.9499C15.9684 12.6599 16.4484 12.6599 16.7384 12.9499L19.2484 15.4599C19.5384 15.7499 19.5384 16.2299 19.2484 16.5199C19.1084 16.6699 18.9184 16.7399 18.7184 16.7399Z" fill="#5C5C5C"/>
<path d="M16.1884 16.77C15.9984 16.77 15.8084 16.7 15.6584 16.55C15.3684 16.26 15.3684 15.78 15.6584 15.49L18.1684 12.98C18.4584 12.69 18.9384 12.69 19.2284 12.98C19.5184 13.27 19.5184 13.7499 19.2284 14.0399L16.7184 16.55C16.5684 16.7 16.3784 16.77 16.1884 16.77Z" fill="#5C5C5C"/>
<path d="M11.4982 22.75C11.0182 22.75 10.5382 22.63 10.1082 22.39C9.21816 21.89 8.68816 20.99 8.68816 19.98V14.63C8.68816 14.13 8.35816 13.37 8.03816 12.98L4.23816 8.98999C3.60816 8.33999 3.11816 7.25001 3.11816 6.45001V4.12C3.11816 2.51 4.33816 1.25 5.88816 1.25H19.2282C20.7582 1.25 21.9982 2.49002 21.9982 4.02002V6.23999C21.9982 7.28999 21.3782 8.47003 20.7782 9.09003L18.9782 10.68C18.7982 10.84 18.5382 10.9 18.3082 10.85C18.0382 10.78 17.7482 10.75 17.4482 10.75C15.2382 10.75 13.4482 12.54 13.4482 14.75C13.4482 15.48 13.6482 16.19 14.0282 16.81C14.3482 17.34 14.7782 17.78 15.2782 18.09C15.4982 18.23 15.6382 18.47 15.6382 18.73V19.07C15.6382 19.86 15.1582 20.97 14.3582 21.44L12.9782 22.33C12.5282 22.61 12.0082 22.75 11.4982 22.75ZM5.89816 2.75C5.18816 2.75 4.62816 3.35 4.62816 4.12V6.45001C4.62816 6.81001 4.92816 7.55001 5.32816 7.95001L9.17816 12C9.68816 12.63 10.1982 13.7 10.1982 14.64V19.99C10.1982 20.65 10.6582 20.98 10.8482 21.09C11.2782 21.33 11.7882 21.32 12.1782 21.08L13.5782 20.18C13.8482 20.02 14.1182 19.51 14.1382 19.15C13.5882 18.74 13.1082 18.21 12.7482 17.61C12.2282 16.76 11.9482 15.78 11.9482 14.78C11.9482 11.75 14.4182 9.28003 17.4482 9.28003C17.7282 9.28003 18.0082 9.30003 18.2682 9.34003L19.7482 8.03003C20.0882 7.68003 20.5082 6.85001 20.5082 6.26001V4.03998C20.5082 3.33998 19.9382 2.77002 19.2382 2.77002H5.89816V2.75Z" fill="#5C5C5C"/>
</svg>
