<svg width="13" height="13" viewBox="0 0 13 13" fill="none" xmlns="http://www.w3.org/2000/svg">
<path d="M6.12994 11.9774C5.88994 11.9774 5.64996 11.9174 5.42996 11.7974C4.98496 11.5474 4.71994 11.1024 4.71994 10.5974V7.92244C4.71994 7.66744 4.55493 7.29243 4.39993 7.09743L2.49994 5.10243C2.18494 4.78743 1.93994 4.23743 1.93994 3.83243V2.67244C1.93994 1.86744 2.54995 1.23743 3.32495 1.23743H9.99493C10.7599 1.23743 11.3799 1.85744 11.3799 2.62244V3.73244C11.3799 4.25744 11.065 4.86242 10.765 5.15742C10.62 5.30242 10.38 5.30242 10.235 5.15742C10.09 5.01242 10.09 4.77243 10.235 4.62743C10.42 4.44243 10.6299 4.02744 10.6299 3.73244V2.62244C10.6299 2.27244 10.3449 1.98743 9.99493 1.98743H3.32495C2.96995 1.98743 2.68994 2.28744 2.68994 2.67244V3.83243C2.68994 4.01743 2.83994 4.38244 3.03494 4.57744L4.95996 6.60243C5.21496 6.91743 5.46494 7.44744 5.46494 7.92244V10.5974C5.46494 10.9274 5.68995 11.0874 5.78995 11.1424C6.00495 11.2624 6.25996 11.2574 6.45996 11.1374L7.15994 10.6874C7.30494 10.6024 7.44495 10.3274 7.44495 10.1424C7.44495 9.93742 7.61495 9.76742 7.81995 9.76742C8.02495 9.76742 8.19495 9.93742 8.19495 10.1424C8.19495 10.5924 7.91494 11.1074 7.55994 11.3224L6.86496 11.7724C6.63996 11.9074 6.38494 11.9774 6.12994 11.9774Z" fill="#5C5C5C"/>
<path d="M8.7001 9.23784C7.6101 9.23784 6.7251 8.35285 6.7251 7.26285C6.7251 6.17285 7.6101 5.28784 8.7001 5.28784C9.7901 5.28784 10.6751 6.17285 10.6751 7.26285C10.6751 8.35285 9.7901 9.23784 8.7001 9.23784ZM8.7001 6.03784C8.0251 6.03784 7.4751 6.58785 7.4751 7.26285C7.4751 7.93785 8.0251 8.48784 8.7001 8.48784C9.3751 8.48784 9.92511 7.93785 9.92511 7.26285C9.92511 6.58785 9.3751 6.03784 8.7001 6.03784Z" fill="#5C5C5C"/>
<path d="M10.5998 9.5372C10.5048 9.5372 10.4098 9.5022 10.3348 9.4272L9.83482 8.9272C9.68982 8.7822 9.68982 8.5422 9.83482 8.3972C9.97982 8.2522 10.2198 8.2522 10.3648 8.3972L10.8648 8.8972C11.0098 9.0422 11.0098 9.2822 10.8648 9.4272C10.7948 9.4972 10.6948 9.5372 10.5998 9.5372Z" fill="#5C5C5C"/>
</svg>
