<?xml version="1.0" standalone="no"?>
<!DOCTYPE svg PUBLIC "-//W3C//DTD SVG 20010904//EN"
 "http://www.w3.org/TR/2001/REC-SVG-20010904/DTD/svg10.dtd">
<svg version="1.0" xmlns="http://www.w3.org/2000/svg"
 width="512.000000pt" height="512.000000pt" viewBox="0 0 512.000000 512.000000"
 preserveAspectRatio="xMidYMid meet">

<g transform="translate(0.000000,512.000000) scale(0.100000,-0.100000)"
fill="#494949" stroke="none">
<path d="M1042 4181 c-60 -21 -113 -67 -145 -126 l-22 -40 0 -1505 0 -1505 22
-40 c28 -53 78 -99 133 -124 45 -20 58 -21 1530 -21 1472 0 1485 1 1530 21 55
25 105 71 133 124 l22 40 0 1505 c0 1449 -1 1506 -19 1540 -26 49 -74 98 -121
123 l-40 22 -1485 2 c-1421 2 -1487 2 -1538 -16z m2987 -205 c8 -10 10 -350 9
-1272 l-3 -1260 -395 469 c-489 580 -506 598 -578 634 -51 25 -67 28 -152 27
-177 -1 -177 -1 -595 -542 l-346 -450 -46 49 c-139 149 -376 150 -514 2 -24
-26 -108 -130 -184 -231 l-140 -183 -3 1372 c-1 1006 1 1375 9 1385 17 21
2921 21 2938 0z m-1033 -1631 c16 -9 256 -287 534 -616 458 -543 505 -603 508
-638 6 -75 57 -71 -838 -71 l-797 0 -20 23 c-60 64 -282 364 -278 375 10 28
708 923 728 933 55 30 107 28 163 -6z m-1263 -827 c19 -7 87 -88 214 -252
l185 -241 -462 -3 c-255 -1 -465 0 -468 2 -7 8 358 476 381 488 52 28 89 29
150 6z"/>
<path d="M1765 3057 c-107 -36 -196 -111 -243 -207 -24 -49 -27 -66 -27 -160
0 -93 3 -112 27 -162 52 -112 168 -198 290 -217 161 -26 330 64 405 216 25 52
28 68 28 158 0 88 -3 107 -27 157 -37 79 -108 152 -185 190 -54 26 -79 32
-146 35 -50 2 -98 -2 -122 -10z m148 -198 c83 -23 147 -117 133 -196 -16 -84
-96 -153 -177 -153 -45 1 -111 31 -137 64 -82 105 -34 247 96 286 37 11 42 11
85 -1z"/>
</g>
</svg>
