<svg width="20" height="20" viewBox="0 0 20 20" fill="none" xmlns="http://www.w3.org/2000/svg">
<path fill-rule="evenodd" clip-rule="evenodd" d="M7.59676 2.59685C7.79211 2.40149 8.05707 2.29175 8.33333 2.29175H11.6667C11.9429 2.29175 12.2079 2.40149 12.4032 2.59685C12.5986 2.7922 12.7083 3.05715 12.7083 3.33342V4.37508H7.29167V3.33342C7.29167 3.05715 7.40141 2.7922 7.59676 2.59685ZM6.04167 4.37508V3.33342C6.04167 2.72563 6.28311 2.14273 6.71288 1.71296C7.14265 1.28319 7.72555 1.04175 8.33333 1.04175H11.6667C12.2745 1.04175 12.8573 1.28319 13.2871 1.71296C13.7169 2.14273 13.9583 2.72563 13.9583 3.33342V4.37508H15.8333H17.5C17.8452 4.37508 18.125 4.6549 18.125 5.00008C18.125 5.34526 17.8452 5.62508 17.5 5.62508H16.4583V16.6667C16.4583 17.2745 16.2169 17.8574 15.7871 18.2872C15.3573 18.717 14.7745 18.9584 14.1667 18.9584H5.83333C5.22555 18.9584 4.64265 18.717 4.21288 18.2872C3.78311 17.8574 3.54167 17.2745 3.54167 16.6667V5.62508H2.5C2.15482 5.62508 1.875 5.34526 1.875 5.00008C1.875 4.6549 2.15482 4.37508 2.5 4.37508H4.16667H6.04167ZM4.79167 5.62508V16.6667C4.79167 16.943 4.90141 17.208 5.09676 17.4033C5.29211 17.5987 5.55707 17.7084 5.83333 17.7084H14.1667C14.4429 17.7084 14.7079 17.5987 14.9032 17.4033C15.0986 17.208 15.2083 16.943 15.2083 16.6667V5.62508H4.79167ZM8.33333 8.54175C8.67851 8.54175 8.95833 8.82157 8.95833 9.16675V14.1667C8.95833 14.5119 8.67851 14.7917 8.33333 14.7917C7.98816 14.7917 7.70833 14.5119 7.70833 14.1667V9.16675C7.70833 8.82157 7.98816 8.54175 8.33333 8.54175ZM12.2917 9.16675C12.2917 8.82157 12.0118 8.54175 11.6667 8.54175C11.3215 8.54175 11.0417 8.82157 11.0417 9.16675V14.1667C11.0417 14.5119 11.3215 14.7917 11.6667 14.7917C12.0118 14.7917 12.2917 14.5119 12.2917 14.1667V9.16675Z" fill="#494949"/>
</svg>
