<svg width="38" height="39" viewBox="0 0 38 39" fill="none" xmlns="http://www.w3.org/2000/svg">
<path d="M23.75 36.4213H14.25C5.65246 36.4213 1.97913 32.748 1.97913 24.1505V14.6505C1.97913 6.05297 5.65246 2.37964 14.25 2.37964H23.75C32.3475 2.37964 36.0208 6.05297 36.0208 14.6505V24.1505C36.0208 32.748 32.3475 36.4213 23.75 36.4213ZM14.25 4.75464C6.95079 4.75464 4.35413 7.35131 4.35413 14.6505V24.1505C4.35413 31.4496 6.95079 34.0463 14.25 34.0463H23.75C31.0491 34.0463 33.6458 31.4496 33.6458 24.1505V14.6505C33.6458 7.35131 31.0491 4.75464 23.75 4.75464H14.25Z" fill="#6E7278"/>
<path d="M14.25 17.4212C11.8434 17.4212 9.89587 15.4737 9.89587 13.0671C9.89587 10.6604 11.8434 8.71289 14.25 8.71289C16.6567 8.71289 18.6042 10.6604 18.6042 13.0671C18.6042 15.4737 16.6567 17.4212 14.25 17.4212ZM14.25 11.0879C13.1575 11.0879 12.2709 11.9746 12.2709 13.0671C12.2709 14.1596 13.1575 15.0462 14.25 15.0462C15.3425 15.0462 16.2292 14.1596 16.2292 13.0671C16.2292 11.9746 15.3425 11.0879 14.25 11.0879Z" fill="#6E7278"/>
<path d="M4.22755 31.5921C3.84755 31.5921 3.46755 31.4021 3.24588 31.0696C2.88171 30.5313 3.02421 29.7871 3.57838 29.4229L11.3842 24.1821C13.0942 23.0263 15.4534 23.1688 17.005 24.4829L17.5275 24.9421C18.3192 25.6229 19.665 25.6229 20.4409 24.9421L27.0275 19.2896C28.7059 17.8488 31.35 17.8488 33.0442 19.2896L35.625 21.5063C36.1159 21.9338 36.1792 22.6779 35.7517 23.1846C35.3242 23.6754 34.58 23.7388 34.0734 23.3113L31.4925 21.0946C30.7009 20.4138 29.355 20.4138 28.5634 21.0946L21.9767 26.7471C20.2984 28.1879 17.6542 28.1879 15.96 26.7471L15.4375 26.2879C14.7092 25.6704 13.5059 25.6071 12.6984 26.1613L4.89255 31.4021C4.68671 31.5288 4.44921 31.5921 4.22755 31.5921Z" fill="#6E7278"/>
</svg>
