<svg width="20" height="20" viewBox="0 0 20 20" fill="none" xmlns="http://www.w3.org/2000/svg">
<path d="M10.025 12.4084C9.86667 12.4084 9.70833 12.3501 9.58333 12.2251C9.34167 11.9834 9.34167 11.5834 9.58333 11.3418L11.275 9.6501L9.58333 7.95843C9.34167 7.71677 9.34167 7.31677 9.58333 7.0751C9.825 6.83343 10.225 6.83343 10.4667 7.0751L12.6 9.20843C12.8417 9.4501 12.8417 9.8501 12.6 10.0918L10.4667 12.2251C10.3417 12.3501 10.1833 12.4084 10.025 12.4084Z" fill="#6E7378"/>
<path d="M12.1 10.2751H3.625C3.28333 10.2751 3 9.99177 3 9.6501C3 9.30843 3.28333 9.0251 3.625 9.0251H12.1C12.4417 9.0251 12.725 9.30843 12.725 9.6501C12.725 9.99177 12.4417 10.2751 12.1 10.2751Z" fill="#6E7378"/>
<path d="M10.1167 2C14.4083 2 17.4083 5 17.4083 9.29167C17.4083 13.5833 14.4083 16.5833 10.1167 16.5833C9.775 16.5833 9.49167 16.3 9.49167 15.9583C9.49167 15.6167 9.775 15.3333 10.1167 15.3333C13.675 15.3333 16.1583 12.85 16.1583 9.29167C16.1583 5.73333 13.675 3.25 10.1167 3.25C9.775 3.25 9.49167 2.96667 9.49167 2.625C9.49167 2.28333 9.775 2 10.1167 2Z" fill="#6E7378"/>
</svg>
