<svg width="20" height="21" viewBox="0 0 20 21" fill="none" xmlns="http://www.w3.org/2000/svg">
<path d="M14.5333 13.4084C14.375 13.4084 14.2167 13.3501 14.0917 13.2251C13.85 12.9834 13.85 12.5834 14.0917 12.3418L15.7833 10.6501L14.0917 8.95843C13.85 8.71676 13.85 8.31676 14.0917 8.07509C14.3333 7.83343 14.7333 7.83343 14.975 8.07509L17.1083 10.2084C17.35 10.4501 17.35 10.8501 17.1083 11.0918L14.975 13.2251C14.85 13.3501 14.6917 13.4084 14.5333 13.4084Z" fill="#6E7378"/>
<path d="M16.6083 11.2751H8.1333C7.79163 11.2751 7.5083 10.9918 7.5083 10.6501C7.5083 10.3084 7.79163 10.0251 8.1333 10.0251H16.6083C16.95 10.0251 17.2333 10.3084 17.2333 10.6501C17.2333 10.9918 16.95 11.2751 16.6083 11.2751Z" fill="#6E7378"/>
<path d="M9.79997 17.8918C5.5083 17.8918 2.5083 14.8918 2.5083 10.6001C2.5083 6.30844 5.5083 3.30844 9.79997 3.30844C10.1416 3.30844 10.425 3.59177 10.425 3.93344C10.425 4.27511 10.1416 4.55844 9.79997 4.55844C6.24163 4.55844 3.7583 7.04177 3.7583 10.6001C3.7583 14.1584 6.24163 16.6418 9.79997 16.6418C10.1416 16.6418 10.425 16.9251 10.425 17.2668C10.425 17.6084 10.1416 17.8918 9.79997 17.8918Z" fill="#6E7378"/>
</svg>
