<svg width="20" height="21" viewBox="0 0 20 21" fill="none" xmlns="http://www.w3.org/2000/svg">
<path d="M14.5336 13.4079C14.3752 13.4079 14.2169 13.3496 14.0919 13.2246C13.8502 12.9829 13.8502 12.5829 14.0919 12.3413L15.7836 10.6496L14.0919 8.95794C13.8502 8.71628 13.8502 8.31628 14.0919 8.07461C14.3336 7.83294 14.7336 7.83294 14.9752 8.07461L17.1086 10.2079C17.3502 10.4496 17.3502 10.8496 17.1086 11.0913L14.9752 13.2246C14.8502 13.3496 14.6919 13.4079 14.5336 13.4079Z" fill="#6E7378"/>
<path d="M16.6083 11.2746H8.1333C7.79163 11.2746 7.5083 10.9913 7.5083 10.6496C7.5083 10.3079 7.79163 10.0246 8.1333 10.0246H16.6083C16.95 10.0246 17.2333 10.3079 17.2333 10.6496C17.2333 10.9913 16.95 11.2746 16.6083 11.2746Z" fill="#6E7378"/>
<path d="M9.79997 17.8913C5.5083 17.8913 2.5083 14.8913 2.5083 10.5996C2.5083 6.30794 5.5083 3.30794 9.79997 3.30794C10.1416 3.30794 10.425 3.59127 10.425 3.93294C10.425 4.27461 10.1416 4.55794 9.79997 4.55794C6.24163 4.55794 3.7583 7.04127 3.7583 10.5996C3.7583 14.1579 6.24163 16.6413 9.79997 16.6413C10.1416 16.6413 10.425 16.9246 10.425 17.2663C10.425 17.6079 10.1416 17.8913 9.79997 17.8913Z" fill="#6E7378"/>
</svg>
