<svg width="20" height="21" viewBox="0 0 20 21" fill="none" xmlns="http://www.w3.org/2000/svg">
<path d="M9.26672 15.8084C9.10838 15.8084 8.95005 15.7501 8.82505 15.6251L7.57505 14.3751C7.33338 14.1334 7.33338 13.7334 7.57505 13.4918C7.81672 13.2501 8.21672 13.2501 8.45838 13.4918L9.28338 14.3168L11.55 12.2251C11.8 11.9918 12.2 12.0084 12.4334 12.2584C12.6667 12.5084 12.65 12.9084 12.4 13.1418L9.69172 15.6418C9.57505 15.7501 9.42505 15.8084 9.26672 15.8084Z" fill="#6E7378"/>
<path d="M4.32507 5.91678C4.16673 5.91678 4.00007 5.85011 3.8834 5.73344C3.64173 5.49178 3.64173 5.09178 3.8834 4.85011L6.9084 1.82511C7.15007 1.58344 7.55007 1.58344 7.79173 1.82511C8.0334 2.06678 8.0334 2.46678 7.79173 2.70844L4.76673 5.73344C4.64173 5.85011 4.4834 5.91678 4.32507 5.91678Z" fill="#6E7378"/>
<path d="M15.675 5.91678C15.5167 5.91678 15.3584 5.85844 15.2334 5.73344L12.2083 2.70844C11.9667 2.46678 11.9667 2.06678 12.2083 1.82511C12.45 1.58344 12.85 1.58344 13.0917 1.82511L16.1167 4.85011C16.3584 5.09178 16.3584 5.49178 16.1167 5.73344C16 5.85011 15.8333 5.91678 15.675 5.91678Z" fill="#6E7378"/>
<path d="M16.8417 9.43343C16.7834 9.43343 16.7251 9.43343 16.6667 9.43343H16.4751H3.33341C2.75008 9.44176 2.08341 9.44176 1.60008 8.95843C1.21675 8.58343 1.04175 8.0001 1.04175 7.14176C1.04175 4.8501 2.71675 4.8501 3.51675 4.8501H16.4834C17.2834 4.8501 18.9584 4.8501 18.9584 7.14176C18.9584 8.00843 18.7834 8.58343 18.4001 8.95843C17.9667 9.39176 17.3834 9.43343 16.8417 9.43343ZM3.51675 8.18343H16.6751C17.0501 8.19176 17.4001 8.19176 17.5167 8.0751C17.5751 8.01676 17.7001 7.81676 17.7001 7.14176C17.7001 6.2001 17.4667 6.1001 16.4751 6.1001H3.51675C2.52508 6.1001 2.29175 6.2001 2.29175 7.14176C2.29175 7.81676 2.42508 8.01676 2.47508 8.0751C2.59175 8.18343 2.95008 8.18343 3.31675 8.18343H3.51675Z" fill="#6E7378"/>
<path d="M12.4083 19.5584H7.38329C4.39996 19.5584 3.73329 17.7834 3.47496 16.2418L2.29996 9.03344C2.24162 8.69177 2.47496 8.37511 2.81662 8.31677C3.14996 8.25844 3.47496 8.49177 3.53329 8.83344L4.70829 16.0334C4.94996 17.5084 5.44996 18.3084 7.38329 18.3084H12.4083C14.55 18.3084 14.7916 17.5584 15.0666 16.1084L16.4666 8.81677C16.5333 8.47511 16.8583 8.25011 17.2 8.32511C17.5416 8.39177 17.7583 8.71677 17.6916 9.05844L16.2916 16.3501C15.9666 18.0418 15.425 19.5584 12.4083 19.5584Z" fill="#6E7378"/>
</svg>
