<svg width="20" height="21" viewBox="0 0 20 21" fill="none" xmlns="http://www.w3.org/2000/svg">
<path d="M9.26647 15.8079C9.10814 15.8079 8.9498 15.7496 8.8248 15.6246L7.5748 14.3746C7.33314 14.1329 7.33314 13.7329 7.5748 13.4913C7.81647 13.2496 8.21647 13.2496 8.45814 13.4913L9.28314 14.3163L11.5498 12.2246C11.7998 11.9913 12.1998 12.0079 12.4331 12.2579C12.6665 12.5079 12.6498 12.9079 12.3998 13.1413L9.69147 15.6413C9.5748 15.7496 9.4248 15.8079 9.26647 15.8079Z" fill="#6E7378"/>
<path d="M4.32507 5.91627C4.16673 5.91627 4.00007 5.84961 3.8834 5.73294C3.64173 5.49127 3.64173 5.09127 3.8834 4.84961L6.9084 1.82461C7.15007 1.58294 7.55007 1.58294 7.79173 1.82461C8.0334 2.06627 8.0334 2.46627 7.79173 2.70794L4.76673 5.73294C4.64173 5.84961 4.4834 5.91627 4.32507 5.91627Z" fill="#6E7378"/>
<path d="M15.6748 5.91627C15.5164 5.91627 15.3581 5.85794 15.2331 5.73294L12.2081 2.70794C11.9664 2.46627 11.9664 2.06627 12.2081 1.82461C12.4498 1.58294 12.8498 1.58294 13.0914 1.82461L16.1164 4.84961C16.3581 5.09127 16.3581 5.49127 16.1164 5.73294C15.9998 5.84961 15.8331 5.91627 15.6748 5.91627Z" fill="#6E7378"/>
<path d="M16.8415 9.43294C16.7832 9.43294 16.7248 9.43294 16.6665 9.43294H16.4748H3.33317C2.74984 9.44128 2.08317 9.44128 1.59984 8.95794C1.2165 8.58294 1.0415 7.99961 1.0415 7.14128C1.0415 4.84961 2.7165 4.84961 3.5165 4.84961H16.4832C17.2832 4.84961 18.9582 4.84961 18.9582 7.14128C18.9582 8.00794 18.7832 8.58294 18.3998 8.95794C17.9665 9.39128 17.3832 9.43294 16.8415 9.43294ZM3.5165 8.18294H16.6748C17.0498 8.19128 17.3998 8.19128 17.5165 8.07461C17.5748 8.01628 17.6998 7.81628 17.6998 7.14128C17.6998 6.19961 17.4665 6.09961 16.4748 6.09961H3.5165C2.52484 6.09961 2.2915 6.19961 2.2915 7.14128C2.2915 7.81628 2.42484 8.01628 2.47484 8.07461C2.5915 8.18294 2.94984 8.18294 3.3165 8.18294H3.5165Z" fill="#6E7378"/>
<path d="M12.4083 19.5579H7.38329C4.39996 19.5579 3.73329 17.7829 3.47496 16.2413L2.29996 9.03294C2.24162 8.69127 2.47496 8.3746 2.81662 8.31627C3.14996 8.25794 3.47496 8.49127 3.53329 8.83294L4.70829 16.0329C4.94996 17.5079 5.44996 18.3079 7.38329 18.3079H12.4083C14.55 18.3079 14.7916 17.5579 15.0666 16.1079L16.4666 8.81627C16.5333 8.4746 16.8583 8.2496 17.2 8.3246C17.5416 8.39127 17.7583 8.71627 17.6916 9.05794L16.2916 16.3496C15.9666 18.0413 15.425 19.5579 12.4083 19.5579Z" fill="#6E7378"/>
</svg>
