<svg width="17" height="18" viewBox="0 0 17 18" fill="none" xmlns="http://www.w3.org/2000/svg">
<path d="M8.14591 15.9062C4.14383 15.9062 0.885498 12.6479 0.885498 8.64582C0.885498 4.64374 4.14383 1.38541 8.14591 1.38541C12.148 1.38541 15.4063 4.64374 15.4063 8.64582C15.4063 12.6479 12.148 15.9062 8.14591 15.9062ZM8.14591 2.44791C4.72466 2.44791 1.948 5.23166 1.948 8.64582C1.948 12.06 4.72466 14.8437 8.14591 14.8437C11.5672 14.8437 14.3438 12.06 14.3438 8.64582C14.3438 5.23166 11.5672 2.44791 8.14591 2.44791Z" fill="#494949"/>
<path d="M15.5834 16.6146C15.4488 16.6146 15.3142 16.565 15.2079 16.4587L13.7913 15.0421C13.5859 14.8367 13.5859 14.4967 13.7913 14.2912C13.9967 14.0858 14.3367 14.0858 14.5421 14.2912L15.9588 15.7079C16.1642 15.9133 16.1642 16.2533 15.9588 16.4587C15.8525 16.565 15.7179 16.6146 15.5834 16.6146Z" fill="#494949"/>
</svg>
