<svg width="17" height="18" viewBox="0 0 17 18" fill="none" xmlns="http://www.w3.org/2000/svg">
  <path d="M8.14567 15.9063C4.14359 15.9063 0.885254 12.648 0.885254 8.64591C0.885254 4.64383 4.14359 1.3855 8.14567 1.3855C12.1478 1.3855 15.4061 4.64383 15.4061 8.64591C15.4061 12.648 12.1478 15.9063 8.14567 15.9063ZM8.14567 2.448C4.72442 2.448 1.94775 5.23175 1.94775 8.64591C1.94775 12.0601 4.72442 14.8438 8.14567 14.8438C11.5669 14.8438 14.3436 12.0601 14.3436 8.64591C14.3436 5.23175 11.5669 2.448 8.14567 2.448Z" fill="#494949"/>
  <path d="M15.5834 16.6146C15.4488 16.6146 15.3142 16.565 15.2079 16.4588L13.7913 15.0421C13.5859 14.8367 13.5859 14.4967 13.7913 14.2913C13.9967 14.0859 14.3367 14.0859 14.5421 14.2913L15.9588 15.7079C16.1642 15.9134 16.1642 16.2534 15.9588 16.4588C15.8525 16.565 15.7179 16.6146 15.5834 16.6146Z" fill="#494949"/>
</svg>
