<svg width="20" height="21" viewBox="0 0 20 21" fill="none" xmlns="http://www.w3.org/2000/svg">
<path d="M10 13.7251C8.275 13.7251 6.875 12.3251 6.875 10.6001C6.875 8.8751 8.275 7.4751 10 7.4751C11.725 7.4751 13.125 8.8751 13.125 10.6001C13.125 12.3251 11.725 13.7251 10 13.7251ZM10 8.7251C8.96667 8.7251 8.125 9.56676 8.125 10.6001C8.125 11.6334 8.96667 12.4751 10 12.4751C11.0333 12.4751 11.875 11.6334 11.875 10.6001C11.875 9.56676 11.0333 8.7251 10 8.7251Z" fill="#6E7378"/>
<path d="M12.6751 19.0918C12.5001 19.0918 12.3251 19.0668 12.1501 19.0251C11.6334 18.8834 11.2001 18.5584 10.9251 18.1001L10.8251 17.9334C10.3334 17.0834 9.65841 17.0834 9.16675 17.9334L9.07508 18.0918C8.80008 18.5584 8.36675 18.8918 7.85008 19.0251C7.32508 19.1668 6.78342 19.0918 6.32508 18.8168L4.89175 17.9918C4.38341 17.7001 4.01675 17.2251 3.85841 16.6501C3.70842 16.0751 3.78341 15.4834 4.07508 14.9751C4.31675 14.5501 4.38341 14.1668 4.24175 13.9251C4.10008 13.6834 3.74175 13.5418 3.25008 13.5418C2.03341 13.5418 1.04175 12.5501 1.04175 11.3334V9.86678C1.04175 8.65011 2.03341 7.65845 3.25008 7.65845C3.74175 7.65845 4.10008 7.51678 4.24175 7.27511C4.38341 7.03345 4.32508 6.65011 4.07508 6.22511C3.78341 5.71678 3.70842 5.11678 3.85841 4.55011C4.00841 3.97511 4.37508 3.50011 4.89175 3.20845L6.33342 2.38345C7.27508 1.82511 8.51675 2.15011 9.08342 3.10845L9.18342 3.27511C9.67508 4.12511 10.3501 4.12511 10.8417 3.27511L10.9334 3.11678C11.5001 2.15011 12.7417 1.82511 13.6917 2.39178L15.1251 3.21678C15.6334 3.50845 16.0001 3.98345 16.1584 4.55845C16.3084 5.13345 16.2334 5.72511 15.9417 6.23345C15.7001 6.65845 15.6334 7.04178 15.7751 7.28345C15.9167 7.52511 16.2751 7.66678 16.7667 7.66678C17.9834 7.66678 18.9751 8.65845 18.9751 9.87511V11.3418C18.9751 12.5584 17.9834 13.5501 16.7667 13.5501C16.2751 13.5501 15.9167 13.6918 15.7751 13.9334C15.6334 14.1751 15.6917 14.5584 15.9417 14.9834C16.2334 15.4918 16.3167 16.0918 16.1584 16.6584C16.0084 17.2334 15.6417 17.7084 15.1251 18.0001L13.6834 18.8251C13.3667 19.0001 13.0251 19.0918 12.6751 19.0918ZM10.0001 16.0084C10.7417 16.0084 11.4334 16.4751 11.9084 17.3001L12.0001 17.4584C12.1001 17.6334 12.2667 17.7584 12.4667 17.8084C12.6667 17.8584 12.8667 17.8334 13.0334 17.7334L14.4751 16.9001C14.6917 16.7751 14.8584 16.5668 14.9251 16.3168C14.9917 16.0668 14.9584 15.8084 14.8334 15.5918C14.3584 14.7751 14.3001 13.9334 14.6667 13.2918C15.0334 12.6501 15.7917 12.2834 16.7417 12.2834C17.2751 12.2834 17.7001 11.8584 17.7001 11.3251V9.85845C17.7001 9.33345 17.2751 8.90011 16.7417 8.90011C15.7917 8.90011 15.0334 8.53345 14.6667 7.89178C14.3001 7.25011 14.3584 6.40845 14.8334 5.59178C14.9584 5.37511 14.9917 5.11678 14.9251 4.86678C14.8584 4.61678 14.7001 4.41678 14.4834 4.28345L13.0417 3.45845C12.6834 3.24178 12.2084 3.36678 11.9917 3.73345L11.9001 3.89178C11.4251 4.71678 10.7334 5.18345 9.99175 5.18345C9.25008 5.18345 8.55841 4.71678 8.08342 3.89178L7.99175 3.72511C7.78342 3.37511 7.31675 3.25011 6.95842 3.45845L5.51675 4.29178C5.30008 4.41678 5.13341 4.62511 5.06675 4.87511C5.00008 5.12511 5.03341 5.38345 5.15841 5.60011C5.63341 6.41678 5.69175 7.25845 5.32508 7.90011C4.95841 8.54178 4.20008 8.90845 3.25008 8.90845C2.71675 8.90845 2.29175 9.33345 2.29175 9.86678V11.3334C2.29175 11.8584 2.71675 12.2918 3.25008 12.2918C4.20008 12.2918 4.95841 12.6584 5.32508 13.3001C5.69175 13.9418 5.63341 14.7834 5.15841 15.6001C5.03341 15.8168 5.00008 16.0751 5.06675 16.3251C5.13341 16.5751 5.29175 16.7751 5.50842 16.9084L6.95008 17.7334C7.12508 17.8418 7.33341 17.8668 7.52508 17.8168C7.72508 17.7668 7.89175 17.6334 8.00008 17.4584L8.09175 17.3001C8.56675 16.4834 9.25842 16.0084 10.0001 16.0084Z" fill="#6E7378"/>
</svg>
