<svg width="16" height="16" viewBox="0 0 16 16" fill="none" xmlns="http://www.w3.org/2000/svg">
<path fill-rule="evenodd" clip-rule="evenodd" d="M7.1001 1.6667C7.37466 1.51212 7.68443 1.43091 7.99953 1.43091C8.31462 1.43091 8.62439 1.51212 8.89896 1.6667C9.17352 1.82128 9.40361 2.04402 9.56703 2.31342L9.56847 2.3158L15.2192 11.7493C15.3793 12.0266 15.464 12.3409 15.4649 12.661C15.4658 12.9811 15.3828 13.2959 15.2243 13.574C15.0658 13.8521 14.8372 14.0839 14.5613 14.2462C14.2854 14.4086 13.9718 14.4959 13.6517 14.4994L13.6462 14.4994L2.34736 14.4994C2.02726 14.4959 1.71366 14.4086 1.43776 14.2462C1.16186 14.0839 0.933279 13.8521 0.774755 13.574C0.61623 13.2959 0.533291 12.9811 0.534187 12.661C0.535083 12.3409 0.619785 12.0266 0.779864 11.7494L0.78387 11.7424L6.43059 2.3158L6.85953 2.57274L6.43203 2.31342C6.59544 2.04402 6.82553 1.82128 7.1001 1.6667ZM7.28766 2.83101L7.28703 2.83205L1.64408 12.2525C1.57247 12.3778 1.53459 12.5195 1.53418 12.6638C1.53378 12.8093 1.57148 12.9524 1.64353 13.0788C1.71559 13.2052 1.81949 13.3106 1.9449 13.3844C2.06961 13.4578 2.21126 13.4974 2.35591 13.4994H13.6431C13.7878 13.4974 13.9294 13.4578 14.0542 13.3844C14.1796 13.3106 14.2835 13.2052 14.3555 13.0788C14.4276 12.9524 14.4653 12.8093 14.4649 12.6638C14.4645 12.5195 14.4266 12.3778 14.355 12.2525L8.71203 2.83205L8.71139 2.83101C8.63715 2.70902 8.5328 2.60815 8.40836 2.53809C8.28356 2.46782 8.14275 2.43091 7.99953 2.43091C7.8563 2.43091 7.7155 2.46782 7.59069 2.53809C7.46625 2.60815 7.3619 2.70902 7.28766 2.83101ZM7.99952 5.49992C8.27566 5.49992 8.49952 5.72378 8.49952 5.99992V8.66659C8.49952 8.94273 8.27566 9.16659 7.99952 9.16659C7.72338 9.16659 7.49952 8.94273 7.49952 8.66659V5.99992C7.49952 5.72378 7.72338 5.49992 7.99952 5.49992ZM7.99952 10.8333C7.72338 10.8333 7.49952 11.0571 7.49952 11.3333C7.49952 11.6094 7.72338 11.8333 7.99952 11.8333H8.00619C8.28233 11.8333 8.50619 11.6094 8.50619 11.3333C8.50619 11.0571 8.28233 10.8333 8.00619 10.8333H7.99952Z" fill="#FE645E"/>
</svg>
